<?xml version="1.0" encoding="UTF-8"?>
<svg id="Layer_2" data-name="Layer 2" xmlns="http://www.w3.org/2000/svg" viewBox="0 0 985.09 113.86">
  <defs>
    <style>
      .cls-1 {
        fill: #735fa9;
      }

      .cls-1, .cls-2 {
        stroke-width: 0px;
      }

      .cls-2 {
        fill: #231f20;
      }
    </style>
  </defs>
  <g id="Layer_1-2" data-name="Layer 1">
    <g>
      <path class="cls-2" d="M34.7,22.77H0v-.81C0,9.96,9.82.14,21.82.14c23.67,0,47.34,0,71.02,0v22.64c-11.43,0-22.85,0-34.28,0,0,30.33-.02,60.67-.03,91-.67,0-1.34,0-2.01,0-12.05,0-21.83-9.77-21.83-21.83V22.77Z"/>
      <path class="cls-2" d="M168.45.13c-4.17,0-8.34,0-12.51,0-8.89,0-16.9,5.4-20.23,13.64-13.48,33.33-26.96,66.67-40.44,100,5.02,0,10.04,0,15.06,0,9.07,0,17.19-5.61,20.41-14.09,12.57-33.18,25.15-66.37,37.72-99.55Z"/>
      <path class="cls-2" d="M305.86,91.11h-47.22c-.02-30.32-.05-60.65-.07-90.97h-3.27c-12.05,0-21.83,9.77-21.83,21.82v91.81c16.85,0,33.71,0,50.57,0,12.05,0,21.83-9.77,21.83-21.83v-.84Z"/>
      <path class="cls-2" d="M330.46.14c8.25,0,16.51,0,24.76-.01,0,17.4-.01,34.79-.02,52.19,11.29-14.58,22.58-29.15,33.87-43.73,4.13-5.33,10.5-8.46,17.24-8.46h15.76c-15.07,19.31-30.14,38.64-45.21,57.96,15.07,18.56,30.14,37.12,45.21,55.68-5.32,0-10.63,0-15.95,0-6.52,0-12.69-2.92-16.84-7.95-8.48-10.3-16.96-20.6-25.44-30.9-2.85,3.74-5.7,7.47-8.54,11.21-.03,9.22-.05,18.43-.08,27.65-8.24,0-16.47,0-24.71,0-.02-37.88-.04-75.75-.05-113.63Z"/>
      <path class="cls-2" d="M435.76,96.03l2.45-2.76c6.44-7.25,16.92-9.44,25.65-5.22,6.77,3.27,13.96,5.09,22.13,5.09,10.98,0,17.77-4.4,17.77-11.23v-.3c0-6.68-4.2-9.71-24.23-14.57-23.9-5.62-39.08-11.84-39.08-33.69v-.3C440.44,13.17,457.56.12,481.46.12c17.28,0,31.33,4.86,43.44,13.96l-1.88,2.53c-5.86,7.88-16.27,10.92-25.41,7.32-5.53-2.18-11.06-3.33-16.64-3.33-10.34,0-15.83,4.7-15.83,10.32v.3c0,7.44,5.17,10.32,25.84,15.18,23.9,5.62,37.47,13.96,37.47,32.93v.3c0,21.7-17.76,33.99-42.96,33.99-18.09,0-35.53-5.62-49.74-17.6Z"/>
      <path class="cls-2" d="M574.88.06h24.09c2.37-.15,21.59-1.02,34.02,13.47,6.65,7.75,8.22,16.25,8.68,20.24,1.06,9.18-3.3,15.89-4.06,17.17-5.61,9.48-14.91,12.77-19.08,14.24-5.07,1.79-10.51,2.08-21.18,2.58-8.44.4-15.43.38-20.28.28-.04,8-.08,16.01-.11,24.01-.06,12.01-9.81,21.72-21.82,21.72h-2.08s0-91.89,0-91.89c0-12.05,9.77-21.83,21.83-21.83ZM595.55,45.39c11.88,0,18.81-4.82,18.81-11.21v-.2c0-7.38-7.36-11.22-19.24-11.22h-18.25v22.63h18.68Z"/>
      <path class="cls-2" d="M894.54,1.05h72.55c9.93,0,18,8.07,18,18v4.6h-72.55c-9.93,0-18-8.07-18-18V1.05h0Z"/>
      <path class="cls-2" d="M894.36,91.11h72.55c9.93,0,18,8.07,18,18v4.6h-72.55c-9.93,0-18-8.07-18-18v-4.6h0Z"/>
      <path class="cls-2" d="M894.36,45.33h72.55c9.93,0,18,8.07,18,18v4.6h-72.55c-9.93,0-18-8.07-18-18v-4.6h0Z"/>
      <path class="cls-2" d="M780.6,1.2h72.55c9.93,0,18,8.07,18,18v4.6h-72.55c-9.93,0-18-8.07-18-18V1.2h0Z"/>
      <path class="cls-2" d="M780.43,91.26h72.55c9.93,0,18,8.07,18,18v4.6h-72.55c-9.93,0-18-8.07-18-18v-4.6h0Z"/>
      <path class="cls-2" d="M780.43,45.48h72.55c9.93,0,18,8.07,18,18v4.6h-72.55c-9.93,0-18-8.07-18-18v-4.6h0Z"/>
      <path class="cls-1" d="M167.57,53.94c-3.72.02-7.45.04-11.17.06,9.07,19.87,18.14,39.74,27.21,59.62h26.47c-7.57-15.77-15.15-31.53-22.72-47.3-3.65-7.6-11.35-12.42-19.78-12.37Z"/>
      <path class="cls-2" d="M665.12,21.88c0-12.04,9.75-21.81,21.79-21.82,9.75-.02,19.51-.03,29.26-.05,2.46,0,16.75.24,27.5,11.62,7.65,8.1,10.02,18.31,10.23,24.82,0,.25,0,.67-.02,1.24-.37,9.54-6.1,16.38-7.73,18.26-6.62,7.67-14.99,9.92-17.97,10.58,9.21,15.7,18.43,31.41,27.64,47.11h-26.04c-8.52-15.19-17.05-30.38-25.57-45.57h-15.08c-.07,15.26-.14,30.52-.21,45.78-7.94,0-15.87,0-23.81,0V21.88ZM707.71,45.48c11.88,0,18.81-4.82,18.81-11.21v-.2c0-7.38-7.36-11.22-19.24-11.22h-18.25v22.63h18.68Z"/>
    </g>
  </g>
</svg>